<?xml version="1.0" encoding="utf-8"?>
<!-- Generator: Adobe Illustrator 18.0.0, SVG Export Plug-In . SVG Version: 6.00 Build 0)  -->
<!DOCTYPE svg PUBLIC "-//W3C//DTD SVG 1.1//EN" "http://www.w3.org/Graphics/SVG/1.1/DTD/svg11.dtd">
<svg version="1.1" id="Layer_1" xmlns="http://www.w3.org/2000/svg" xmlns:xlink="http://www.w3.org/1999/xlink" x="0px" y="0px"
	 width="26px" height="26px" viewBox="0 0 9.9 13.5" enable-background="new 0 0 9.9 13.5" xml:space="preserve">
<g>
	<path fill="#FFFFFF" d="M2.3,2.7H0.8V1.5h1.4V2.7z M2.3,10.6H0.8V4.3h1.4V10.6z"/>
	<path fill="#E86124" d="M9.4,7.6c0,0.9-0.2,1.7-0.6,2.2s-1,0.8-1.8,0.8c-0.4,0-0.7-0.1-1-0.2s-0.5-0.4-0.7-0.7l-0.1,0.8H3.9V1.5
		h1.4V5C5.5,4.7,5.7,4.5,6,4.4s0.6-0.2,1-0.2c0.8,0,1.4,0.3,1.8,0.9s0.6,1.4,0.6,2.4V7.6z M8,7.5c0-0.7-0.1-1.2-0.3-1.6
		S7.1,5.3,6.6,5.3C6.3,5.3,6,5.4,5.8,5.5S5.4,5.9,5.3,6.1v2.7C5.4,9,5.6,9.2,5.8,9.4s0.5,0.2,0.8,0.2c0.5,0,0.8-0.2,1.1-0.5
		S8,8.2,8,7.6V7.5z"/>
</g>
</svg>
