<?xml version="1.0" encoding="utf-8"?>
<!-- Generator: Adobe Illustrator 18.0.0, SVG Export Plug-In . SVG Version: 6.00 Build 0)  -->
<!DOCTYPE svg PUBLIC "-//W3C//DTD SVG 1.1//EN" "http://www.w3.org/Graphics/SVG/1.1/DTD/svg11.dtd">
<svg version="1.1" id="Layer_1" xmlns="http://www.w3.org/2000/svg" xmlns:xlink="http://www.w3.org/1999/xlink" x="0px" y="0px"
	 width="25.3px" height="84.3px" viewBox="0 0 25.3 84.3" enable-background="new 0 0 25.3 84.3" xml:space="preserve">
<g>
	<path d="M7.9,12.4c-0.8,0-1.5,0.7-1.5,1.5c0,0.9,0.7,1.5,1.5,1.5c0.9,0,1.5-0.7,1.5-1.5C9.4,13.1,8.7,12.4,7.9,12.4L7.9,12.4z
		 M7.9,12.4" fill="#eb601e"/>
	<path d="M19.3,12.4c-0.9,0-1.5,0.7-1.5,1.5c0,0.9,0.7,1.5,1.5,1.5c0.9,0,1.5-0.7,1.5-1.5C20.9,13.1,20.2,12.4,19.3,12.4L19.3,12.4z
		 M19.3,12.4" fill="#eb601e"/>
	<path d="M23.2,6.8l0-2c0-0.4-0.4-0.8-0.8-0.8h-1.2l-0.7,2.8H23.2z M23.2,6.8" fill="#eb601e"/>
	<g>
		<defs>
			<rect id="SVGID_1_" x="0" y="0" width="24.6" height="15.6"/>
		</defs>
		<clipPath id="SVGID_2_">
			<use xlink:href="#SVGID_1_"  overflow="visible"/>
		</clipPath>
		<path clip-path="url(#SVGID_2_)" d="M20.5,1c0.1-0.2,0-0.5-0.2-0.7C20.2,0.1,19.9,0,19.7,0H6.9C6.5,0,6.2,0.3,6.1,0.6L5.9,1.3H4.2
			c-0.5,0-0.8,0.4-0.8,0.8C3.4,2.6,3.7,3,4.2,3h1.4L5.2,4.7h-3c-0.5,0-0.8,0.4-0.8,0.8c0,0.5,0.4,0.8,0.8,0.8h2.7L4.4,8.1H0.8
			C0.4,8.1,0,8.5,0,8.9c0,0.5,0.4,0.8,0.8,0.8h3.2l-0.7,3c-0.1,0.2,0,0.5,0.2,0.7c0.2,0.2,0.4,0.3,0.6,0.3h0.5c0.1-1.7,1.5-3,3.2-3
			c1.7,0,3.1,1.3,3.2,3h5.1c0.1-1.2,0.8-2.2,1.9-2.7L20.5,1z M20.5,1" fill="#eb601e"/>
		<path clip-path="url(#SVGID_2_)" d="M24.4,8.4c-0.1-0.2-0.3-0.3-0.5-0.3h-3.8l-0.7,2.7c1.6,0.1,3,1.3,3.1,3c0.3,0,0.5-0.3,0.6-0.5
			l1.3-4.1C24.6,8.9,24.5,8.6,24.4,8.4L24.4,8.4z M24.4,8.4" fill="#eb601e"/>
	</g>
</g>
<g>
	<path d="M7.6,71.3c1,2.2,3.1,3.2,4.2,3.2c0.7,0,1.9-0.4,2.9-1.3c-0.4,0-0.8,0-1.2,0c-0.1,0-0.2,0-0.3,0c-0.2,0.2-0.5,0.3-0.7,0.3
		h-0.9c-0.7,0-1.2-0.5-1.2-1.2s0.5-1.2,1.2-1.2h0.9c0.3,0,0.6,0.1,0.8,0.3c0.1,0,0.1,0,0.2,0c1.2,0,1.9-0.1,2.4-0.2
		c-0.1-0.2-0.1-0.3-0.1-0.5v-3.1c0-0.3,0.1-0.6,0.3-0.9c-0.1-0.9-0.3-1.5-0.6-2c-0.6-1-1.8-1.5-3.7-1.5c-1.6,0-2.7,0.3-3.4,1
		c-0.5,0.5-0.8,1.3-1,2.4c0.2,0.2,0.3,0.5,0.3,0.9v3.1C7.8,70.8,7.7,71,7.6,71.3L7.6,71.3z M7.6,71.3" fill="#eb601e"/>
	<g>
		<defs>
			<rect id="SVGID_3_" x="3" y="61.5" width="17.7" height="21.9"/>
		</defs>
		<clipPath id="SVGID_4_">
			<use xlink:href="#SVGID_3_"  overflow="visible"/>
		</clipPath>
		<path clip-path="url(#SVGID_4_)" d="M5.4,71.3h1.1c0.4,0,0.7-0.3,0.7-0.7v-3.1c0-0.3-0.1-0.5-0.4-0.6c0.2-2.5,1.2-4.3,5-4.3
			c2.2,0,3.5,0.6,4.2,1.7c0.4,0.7,0.6,1.6,0.7,2.5c-0.2,0.1-0.4,0.4-0.4,0.6v3.1c0,0.3,0.2,0.6,0.6,0.7c-0.5,0.3-1.4,0.6-3.5,0.6
			c-0.2,0-0.3,0-0.5,0c-0.1-0.2-0.3-0.3-0.6-0.3h-0.9c-0.3,0-0.6,0.3-0.6,0.6c0,0.3,0.3,0.6,0.6,0.6h0.9c0.2,0,0.4-0.1,0.5-0.3
			c0.2,0,0.4,0,0.5,0c2.3,0,3.7-0.4,4.3-1.2c0,0,0-0.1,0.1-0.1h0.3c0.4,0,0.7-0.3,0.7-0.7v-3.1c0-0.4-0.3-0.7-0.7-0.7h-0.4
			c-0.1-1.2-0.4-2.2-0.9-3c-0.9-1.5-2.6-2.2-5.1-2.2c-2.5,0-4.2,0.7-5.1,2.2c-0.5,0.8-0.8,1.8-0.9,3H5.4c-0.4,0-0.7,0.3-0.7,0.7v3.1
			C4.7,71,5,71.3,5.4,71.3L5.4,71.3z M5.4,71.3" fill="#eb601e"/>
		<path clip-path="url(#SVGID_4_)" d="M20.6,80.4c-0.2-1.5-0.7-3.4-1.7-4.1c-0.7-0.5-3.1-1.7-4.1-2.3l0,0c-0.1-0.1-0.3,0-0.4,0
			c-0.5,0.4-1.1,0.7-1.7,0.8c-0.1,0-0.2,0.1-0.2,0.2l-0.6,1.7L11.2,75c0-0.1-0.1-0.2-0.2-0.2c-0.6-0.1-1.2-0.4-1.7-0.8
			c-0.1-0.1-0.2-0.1-0.4,0c-1,0.5-3.4,1.8-4.1,2.3C3.6,77,3.1,79.8,3,80.4c0,0.1,0,0.1,0,0.2c0,0.1,1.1,2.9,8.8,2.9
			c7.7,0,8.8-2.7,8.8-2.9C20.6,80.5,20.6,80.4,20.6,80.4L20.6,80.4z M17,78.6h-3V78h3V78.6z M17,78.6" fill="#eb601e"/>
	</g>
</g>
<g>
	<g>
		<defs>
			<rect id="SVGID_5_" x="4.1" y="32.8" width="15.4" height="17.3"/>
		</defs>
		<clipPath id="SVGID_6_">
			<use xlink:href="#SVGID_5_"  overflow="visible"/>
		</clipPath>
		<path clip-path="url(#SVGID_6_)" d="M19.3,35.2c0-0.2-0.2-0.4-0.4-0.5l-6.9-1.9c-0.1,0-0.2,0-0.3,0l-6.9,1.9
			c-0.2,0.1-0.4,0.2-0.4,0.5c0,0.3-1,7.1,1.4,10.5c2.3,3.4,5.8,4.3,6,4.3c0,0,0.1,0,0.1,0c0,0,0.1,0,0.1,0c0.1,0,3.6-0.9,6-4.3
			C20.2,42.3,19.3,35.5,19.3,35.2L19.3,35.2z M16.3,39.2l-4.7,4.7c-0.1,0.1-0.3,0.2-0.4,0.2c-0.1,0-0.3-0.1-0.4-0.2L7.8,41
			c-0.1-0.1-0.2-0.2-0.2-0.4c0-0.1,0.1-0.3,0.2-0.4l0.6-0.6c0.2-0.2,0.6-0.2,0.8,0l1.9,1.9l3.7-3.7c0.1-0.1,0.2-0.2,0.4-0.2
			c0.1,0,0.3,0.1,0.4,0.2l0.6,0.6C16.5,38.6,16.5,39,16.3,39.2L16.3,39.2z M16.3,39.2" fill="#eb601e"/>
	</g>
</g>
</svg>
