<?xml version="1.0" encoding="utf-8"?>
<!-- Generator: Adobe Illustrator 18.0.0, SVG Export Plug-In . SVG Version: 6.00 Build 0)  -->
<!DOCTYPE svg PUBLIC "-//W3C//DTD SVG 1.1//EN" "http://www.w3.org/Graphics/SVG/1.1/DTD/svg11.dtd">
<svg version="1.1" id="Layer_1" xmlns="http://www.w3.org/2000/svg" xmlns:xlink="http://www.w3.org/1999/xlink" x="0px" y="0px"
	 viewBox="0 0 13 17" enable-background="new 0 0 13 17" xml:space="preserve">
<g>
	<g>
		<defs>
			<rect id="SVGID_1_" width="13" height="17"/>
		</defs>
		<clipPath id="SVGID_2_">
			<use xlink:href="#SVGID_1_"  overflow="visible"/>
		</clipPath>
		<path clip-path="url(#SVGID_2_)" fill="#444444" d="M10.4,9.7c-0.3,0-0.6,0.1-0.9,0.2l-1.5-2l2.8-3.7c0.5-0.7,0.9-2,0.9-3V0.9
			c0-1-0.4-1.2-0.9-0.5L6.5,6L2.2,0.4C1.7-0.3,1.3-0.1,1.3,0.9v0.2c0,1,0.4,2.3,0.9,3l2.8,3.7l-1.5,2C3.2,9.8,2.9,9.7,2.6,9.7
			C1.2,9.7,0,11.3,0,13.2c0,1.9,1.2,3.5,2.6,3.5c1.4,0,2.6-1.6,2.6-3.5c0-0.5-0.1-1-0.2-1.4l1.5-2l1.5,2c-0.1,0.4-0.2,0.9-0.2,1.4
			c0,1.9,1.2,3.5,2.6,3.5c1.4,0,2.6-1.6,2.6-3.5C13,11.3,11.9,9.7,10.4,9.7L10.4,9.7z M2.6,14.9c-0.7,0-1.3-0.8-1.3-1.8
			c0-1,0.6-1.8,1.3-1.8c0.7,0,1.3,0.8,1.3,1.8C3.9,14.2,3.3,14.9,2.6,14.9L2.6,14.9z M10.4,14.9c-0.7,0-1.3-0.8-1.3-1.8
			c0-1,0.6-1.8,1.3-1.8c0.7,0,1.3,0.8,1.3,1.8C11.7,14.2,11.1,14.9,10.4,14.9L10.4,14.9z M10.4,14.9"/>
	</g>
</g>
</svg>
